<?xml version="1.0" encoding="UTF-8" standalone="no"?>
<!DOCTYPE svg PUBLIC "-//W3C//DTD SVG 1.1//EN" "http://www.w3.org/Graphics/SVG/1.1/DTD/svg11.dtd">
<svg width="100%" height="100%" viewBox="0 0 600 40" version="1.1" xmlns="http://www.w3.org/2000/svg" xmlns:xlink="http://www.w3.org/1999/xlink" xml:space="preserve" xmlns:serif="http://www.serif.com/" style="fill-rule:evenodd;clip-rule:evenodd;stroke-linecap:round;stroke-linejoin:round;stroke-miterlimit:1.5;">
    <g id="Artboard1" transform="matrix(0.6,0,0,0.4,0,0)">
        <rect x="0" y="0" width="1000" height="100" style="fill:none;"/>
        <clipPath id="_clip1">
            <rect x="0" y="0" width="1000" height="100"/>
        </clipPath>
        <g clip-path="url(#_clip1)">
            <g transform="matrix(0.986667,0,0,1.5,6.66667,-25)">
                <path d="M0,50L1000,50" style="fill:none;stroke:rgb(170,170,170);stroke-width:1.68px;"/>
            </g>
            <g transform="matrix(1.66667,0,0,2.5,6.66667,0)">
                <path d="M0,0L0,40" style="fill:none;stroke:rgb(117,117,117);stroke-width:2px;"/>
            </g>
            <g transform="matrix(1.66667,0,0,2.5,993.333,0)">
                <path d="M0,0L0,40" style="fill:none;stroke:rgb(117,117,117);stroke-width:2px;"/>
            </g>
            <g transform="matrix(1.66667,0,0,1.5625,833.333,18.75)">
                <path d="M0,0L0,40" style="fill:none;stroke:rgb(117,117,117);stroke-width:1.2px;"/>
            </g>
            <g transform="matrix(1.66667,0,0,1.5625,666.667,18.75)">
                <path d="M0,0L0,40" style="fill:none;stroke:rgb(117,117,117);stroke-width:1.2px;"/>
            </g>
            <g transform="matrix(1.66667,0,0,1.5625,500,18.75)">
                <path d="M0,0L0,40" style="fill:none;stroke:rgb(117,117,117);stroke-width:1.2px;"/>
            </g>
            <g transform="matrix(1.66667,0,0,1.5625,333.333,18.75)">
                <path d="M0,0L0,40" style="fill:none;stroke:rgb(117,117,117);stroke-width:1.2px;"/>
            </g>
            <g transform="matrix(1.66667,0,0,1.5625,166.667,18.75)">
                <path d="M0,0L0,40" style="fill:none;stroke:rgb(117,117,117);stroke-width:1.2px;"/>
            </g>
        </g>
    </g>
</svg>
